<svg width="162" height="163" viewBox="0 0 162 163" fill="none" xmlns="http://www.w3.org/2000/svg">
<g id="Group">
<g id="Group_2">
<path id="Vector" fill-rule="evenodd" clip-rule="evenodd" d="M81 6.89062C39.8604 6.89062 6.39062 40.3604 6.39062 81.5C6.39062 122.64 39.8604 156.109 81 156.109C122.14 156.109 155.609 122.64 155.609 81.5C155.609 40.3604 122.14 6.89062 81 6.89062ZM81 162.078C36.5686 162.078 0.421875 125.931 0.421875 81.5C0.421875 37.0686 36.5686 0.921875 81 0.921875C125.431 0.921875 161.578 37.0686 161.578 81.5C161.578 125.931 125.431 162.078 81 162.078Z" fill="#1A1C1F"/>
<path id="Vector_2" fill-rule="evenodd" clip-rule="evenodd" d="M81 30.8641C79.399 30.8736 77.8671 31.5177 76.7403 32.6551C75.6136 33.7925 74.9839 35.3303 74.9895 36.9313C74.9895 40.2738 77.6844 42.9956 81 42.9956C82.601 42.9861 84.1329 42.342 85.2597 41.2046C86.3864 40.0672 87.0161 38.5294 87.0105 36.9284C87.0145 35.3284 86.3842 33.792 85.2576 32.6559C84.131 31.5198 82.6 30.8766 81 30.8671V30.8641ZM81 49.0628C74.3717 49.0628 68.9789 43.6193 68.9789 36.9284C68.9789 30.2374 74.3717 24.7969 81 24.7969C87.6283 24.7969 93.0211 30.2374 93.0211 36.9313C93.0211 43.6193 87.6283 49.0628 81 49.0628ZM74.9895 92.2229H87.0105V58.8575H74.9895V92.2229ZM103.654 138.203C102.407 138.203 101.243 137.415 100.813 136.162L87.873 98.2961H74.127L61.1867 136.162C60.6436 137.744 58.9335 138.585 57.3638 138.039C56.607 137.772 55.9867 137.216 55.6384 136.493C55.29 135.77 55.2419 134.939 55.5045 134.18L68.9789 94.7506V58.2517L38.5771 51.313C37.7964 51.1304 37.1196 50.6463 36.6946 49.9663C36.2697 49.2864 36.131 48.4659 36.309 47.684C36.6731 46.0546 38.2846 45.028 39.9052 45.398L72.3185 52.7933H89.6816L122.095 45.398C122.866 45.2577 123.661 45.4209 124.314 45.8536C124.968 46.2863 125.428 46.9549 125.6 47.7195C125.771 48.4841 125.641 49.2854 125.235 49.9557C124.829 50.6261 124.18 51.1135 123.423 51.316L93.0211 58.2487V94.7506L106.496 134.177C106.652 134.632 106.698 135.118 106.63 135.594C106.562 136.07 106.382 136.524 106.105 136.917C105.827 137.31 105.461 137.632 105.035 137.855C104.609 138.079 104.136 138.198 103.654 138.203Z" fill="#EC0016"/>
</g>
</g>
</svg>
