<svg width="144" height="145" viewBox="0 0 144 145" fill="none" xmlns="http://www.w3.org/2000/svg">
<g id="Group">
<g id="Group_2">
<path id="Vector" d="M15.2969 6.84375C10.3607 6.84375 6.34375 10.8607 6.34375 15.7969V129.203C6.34375 134.139 10.3607 138.156 15.2969 138.156H128.703C133.639 138.156 137.656 134.139 137.656 129.203V15.7969C137.656 10.8607 133.639 6.84375 128.703 6.84375H15.2969ZM128.703 144.125H15.2969C7.06895 144.125 0.375 137.431 0.375 129.203V15.7969C0.375 7.56895 7.06895 0.875 15.2969 0.875H128.703C136.931 0.875 143.625 7.56895 143.625 15.7969V129.203C143.625 137.431 136.931 144.125 128.703 144.125Z" fill="#1A1C1F"/>
<path id="Vector_2" fill-rule="evenodd" clip-rule="evenodd" d="M52.1062 52.6031V92.3968H91.8879L91.8939 52.6031H52.1062ZM91.8939 98.3656H52.1062C48.8115 98.3656 46.1375 95.6886 46.1375 92.3968V52.6031C46.1375 49.3114 48.8115 46.6344 52.1062 46.6344H91.8939C95.1886 46.6344 97.8626 49.3114 97.8626 52.6031V92.3968C97.8626 95.6886 95.1886 98.3656 91.8939 98.3656Z" fill="#EC0016"/>
</g>
</g>
</svg>
