<svg width="150" height="151" viewBox="0 0 150 151" fill="none" xmlns="http://www.w3.org/2000/svg">
<g id="Group">
<g id="Group_2">
<path id="Vector" d="M141.82 72.4589C146.912 64.8903 149.625 55.9721 149.609 46.85C149.609 21.5067 128.993 0.890625 103.65 0.890625C94.4373 0.890625 85.5498 3.60641 77.9456 8.7455C77.2899 9.18874 76.837 9.87433 76.6868 10.6514C76.5365 11.4286 76.7011 12.2335 77.1443 12.8893C77.5876 13.5451 78.2731 13.9979 79.0503 14.1482C79.8274 14.2984 80.6324 14.1339 81.2881 13.6906C87.8899 9.22575 95.6802 6.84593 103.65 6.85938C125.705 6.85938 143.641 24.7985 143.641 46.85C143.641 54.8302 141.298 62.5359 136.866 69.1313C136.64 69.4564 136.48 69.8233 136.397 70.2107C136.314 70.5981 136.308 70.9982 136.381 71.3876C136.454 71.777 136.604 72.148 136.822 72.4789C137.04 72.8099 137.322 73.0941 137.651 73.315C137.98 73.5359 138.349 73.6891 138.738 73.7657C139.127 73.8423 139.527 73.8407 139.915 73.761C140.303 73.6813 140.671 73.5251 140.998 73.3016C141.326 73.078 141.605 72.7916 141.82 72.4589ZM110.684 102.431C110.143 102.431 109.613 102.283 109.149 102.004C108.685 101.726 108.306 101.326 108.052 100.848C107.798 100.371 107.678 99.8333 107.706 99.293C107.734 98.7528 107.908 98.2303 108.21 97.7813C112.642 91.1968 115.004 83.4372 114.991 75.5C114.991 53.4485 97.0546 35.5064 75 35.5064C66.984 35.5064 59.2485 37.87 52.6381 42.3376C51.9825 42.7542 51.1904 42.8988 50.4299 42.7407C49.6694 42.5825 49.0006 42.1341 48.5654 41.4907C48.1303 40.8473 47.9631 40.0596 48.0995 39.2949C48.2358 38.5303 48.6649 37.8489 49.2956 37.3955C56.8824 32.2589 65.838 29.5212 75 29.5376C100.343 29.5376 120.959 50.1537 120.959 75.5C120.959 84.674 118.265 93.5286 113.17 101.112C112.897 101.519 112.527 101.852 112.094 102.082C111.661 102.312 111.175 102.432 110.684 102.431Z" fill="#1A1C1F"/>
<path id="Vector_2" fill-rule="evenodd" clip-rule="evenodd" d="M46.35 64.1594C24.2985 64.1594 6.35938 82.0955 6.35938 104.147C6.35938 126.199 24.2985 144.138 46.35 144.138C68.4015 144.138 86.3406 126.199 86.3406 104.147C86.3406 82.0984 68.4015 64.1564 46.35 64.1564M46.35 150.106C21.0067 150.109 0.390625 129.496 0.390625 104.15C0.390625 78.8097 21.0067 58.1906 46.35 58.1906C71.6933 58.1906 92.3094 78.8097 92.3094 104.15C92.3094 129.496 71.6933 150.106 46.35 150.106Z" fill="#EC0016"/>
</g>
</g>
</svg>
