<svg width="487" height="70" viewBox="0 0 487 70" fill="none" xmlns="http://www.w3.org/2000/svg">
<g clip-path="url(#clip0_37792_29131)">
<g clip-path="url(#clip1_37792_29131)">
<path d="M96.3816 2.91426C95.4606 1.99072 94.3665 1.25794 93.1619 0.757879C91.9574 0.257817 90.666 0.000298488 89.3617 7.16172e-05H9.97873C8.67305 -0.00489292 7.37234 0.248299 6.16596 0.744752C4.95461 1.24121 3.85745 1.97099 2.92908 2.89936C2.00181 3.82364 1.26623 4.92196 0.764543 6.13128C0.258756 7.34047 -0.00114526 8.63829 3.79348e-06 9.94901V59.6838C0.0148974 62.3249 1.07234 64.8568 2.93901 66.7185C4.80859 68.5809 7.33979 69.627 9.97873 69.6277H89.3617C92.0028 69.6128 94.5298 68.5554 96.3915 66.6738C98.2532 64.7972 99.2957 62.2554 99.2908 59.6093V9.94901C99.2908 7.31284 98.2433 4.78092 96.3816 2.91426ZM92.0475 59.6143C92.0624 59.9767 92.0028 60.3391 91.8738 60.6816C91.7447 61.0242 91.5511 61.332 91.3028 61.6001C91.0546 61.8632 90.7518 62.0767 90.4241 62.2256C90.0915 62.3745 89.7341 62.454 89.3716 62.4589H9.97873C9.61135 62.4589 9.24894 62.3845 8.91135 62.2405C8.57336 62.0958 8.26781 61.8848 8.01277 61.6199C7.75958 61.3568 7.561 61.0391 7.42695 60.6965C7.29788 60.354 7.23334 59.9866 7.24823 59.6192V9.94901C7.22837 9.57667 7.28795 9.20433 7.41703 8.85681C7.5461 8.50929 7.74469 8.19156 7.99788 7.91851C8.25107 7.65043 8.55887 7.43199 8.90142 7.28801C9.24398 7.13908 9.61135 7.06461 9.97873 7.06461H89.3617C89.7291 7.07454 90.0915 7.15397 90.4241 7.30291C90.7617 7.45184 91.0596 7.67028 91.3128 7.93837C91.561 8.20645 91.7546 8.52419 91.8837 8.8717C92.0078 9.21922 92.0624 9.5866 92.0475 9.94901V59.6143Z" fill="#EC0016"/>
<path d="M30.3687 57.6038H13.668V12.0293H30.3687C42.1347 12.0293 48.6382 19.4116 48.6382 34.608C48.6581 47.7988 44.2396 57.4946 30.3687 57.6038ZM37.6269 35.5513C37.6269 26.3719 36.634 19.1981 26.8042 19.1981H24.59V50.2116H28.4723C34.2609 50.2116 37.6269 45.5747 37.6269 35.5513ZM77.4524 33.7591C79.7311 33.069 81.7318 31.6641 83.1616 29.7577C84.5914 27.8463 85.3758 25.5329 85.3957 23.1449C85.3957 22.2017 85.207 12.0442 72.4084 12.0442H53.424V57.6038H69.5091C73.7687 57.6038 87.0439 57.6038 87.0439 44.7903C87.0439 41.5882 85.7333 35.5612 77.4524 33.7591ZM64.2467 19.069H67.6822C72.5772 19.069 74.5233 20.7818 74.5233 24.5598C74.5233 27.5435 72.3786 30.0704 68.5659 30.0704H64.2467V19.069ZM68.7247 50.2116H64.2467V38.5052H69.0226C74.6921 38.5052 76.0822 41.8165 76.0822 44.3634C76.0822 50.2116 70.502 50.2116 68.7247 50.2116Z" fill="#EC0016"/>
<path d="M124.117 57.5894V18.9703H139.418C145.508 18.9703 150.085 20.5904 153.15 23.8306C156.211 27.0707 157.742 31.8251 157.742 38.0937V38.2029C157.742 44.5774 156.167 49.4012 153.016 52.6745C149.862 55.9511 145.258 57.5894 139.204 57.5894H124.117ZM133.838 50.4157H138.832C140.993 50.4157 142.711 50.0185 143.985 49.2242C145.26 48.4265 146.19 47.1424 146.775 45.3717C147.358 43.601 147.649 41.228 147.649 38.2525V38.1483C147.649 35.1729 147.358 32.818 146.775 31.0838C146.19 29.3462 145.26 28.0885 143.985 27.3107C142.711 26.5329 140.993 26.144 138.832 26.144H133.838V50.4157Z" fill="#16181B"/>
<path d="M176.388 58.4384C171.145 58.4384 167.295 57.2436 164.835 54.854C162.373 52.4644 161.142 48.7377 161.142 43.6739V43.4604C161.142 38.6084 162.381 34.8717 164.86 32.2505C167.339 29.6292 170.828 28.3185 175.325 28.3185C179.575 28.3185 182.781 29.5497 184.942 32.0122C187.1 34.4746 188.179 38.0954 188.179 42.8746V45.3717H170.386C170.492 47.0729 170.756 48.3736 171.18 49.2739C171.607 50.1774 172.307 50.8162 173.28 51.1902C174.253 51.5609 175.625 51.7462 177.396 51.7462C178.918 51.7462 180.326 51.6138 181.621 51.349C182.911 51.0809 184.566 50.5928 186.585 49.8845V56.4724C184.781 57.1476 183.073 57.6441 181.462 57.9618C179.85 58.2795 178.159 58.4384 176.388 58.4384ZM170.386 40.4866H179.307C179.168 38.2526 178.797 36.6854 178.195 35.7852C177.593 34.8817 176.583 34.4299 175.167 34.4299C173.571 34.4299 172.42 34.8899 171.711 35.81C171.003 36.7301 170.561 38.289 170.386 40.4866Z" fill="#16181B"/>
<path d="M201.088 58.4384C197.408 58.4384 194.22 57.8724 191.526 56.7405V50.3114C194.644 51.6221 197.725 52.2774 200.77 52.2774C202.329 52.2774 203.463 52.0821 204.171 51.6916C204.879 51.3044 205.233 50.7202 205.233 49.9391C205.233 49.1613 204.879 48.5689 204.171 48.1618C203.463 47.7547 202.064 47.2847 199.976 46.7519C196.964 46.0105 194.803 44.9299 193.492 43.51C192.182 42.0968 191.526 40.0961 191.526 37.5079C191.526 34.4994 192.527 32.2157 194.53 30.6568C196.529 29.098 199.37 28.3185 203.054 28.3185C205.993 28.3185 208.879 28.7802 211.712 29.7036V36.2866C208.561 35.1547 205.675 34.5887 203.054 34.5887C200.506 34.5887 199.231 35.2788 199.231 36.659C199.231 37.2249 199.427 37.6767 199.817 38.0143C200.204 38.3519 200.726 38.6266 201.381 38.8384C202.036 39.0502 203.32 39.4226 205.233 39.9554C208.03 40.6968 210.066 41.741 211.34 43.088C212.617 44.4351 213.256 46.2935 213.256 48.6632C213.256 51.9564 212.255 54.4088 210.253 56.0207C208.253 57.6325 205.199 58.4384 201.088 58.4384Z" fill="#16181B"/>
<path d="M217.45 30.1804C220.886 30.0745 223.17 29.4903 224.301 28.4279H226.372V57.5896H217.45V30.1804ZM221.963 26.0896C220.583 26.0896 219.459 25.6461 218.592 24.7591C217.725 23.8754 217.291 22.76 217.291 21.413C217.291 20.1024 217.743 19.0052 218.647 18.1215C219.55 17.2345 220.656 16.791 221.963 16.791C223.274 16.791 224.373 17.2345 225.26 18.1215C226.143 19.0052 226.585 20.1206 226.585 21.4676C226.585 22.7782 226.152 23.8754 225.284 24.7591C224.417 25.6461 223.31 26.0896 221.963 26.0896Z" fill="#16181B"/>
<path d="M243.107 69.0625C233.757 69.0625 229.082 66.8136 229.082 62.3157C229.082 61.111 229.428 60.0221 230.12 59.049C230.808 58.076 231.968 57.2171 233.6 56.4724C232.644 55.9429 231.952 55.3505 231.525 54.6951C231.101 54.0398 230.889 53.2157 230.889 52.2228C230.889 49.8497 232.182 47.672 234.767 45.6895C233.529 44.733 232.635 43.6705 232.086 42.5022C231.536 41.3339 231.262 39.9356 231.262 38.3072C231.262 35.12 232.324 32.6592 234.449 30.9249C236.574 29.1873 239.566 28.3185 243.425 28.3185C245.55 28.3185 247.587 28.6379 249.536 29.2767H258.194V34.0575H257.291C256.371 34.0575 255.485 34.1635 254.635 34.3753C254.883 35.014 255.06 35.5899 255.166 36.1029C255.272 36.6159 255.325 37.2266 255.325 37.9348C255.325 41.1221 254.289 43.5828 252.217 45.3171C250.145 47.0547 247.196 47.9235 243.37 47.9235C241.566 47.9235 239.867 47.71 238.272 47.2831C237.812 47.849 237.582 48.4696 237.582 49.1448C237.582 50.6672 238.573 51.4285 240.555 51.4285H247.516C251.163 51.4285 253.845 52.0656 255.563 53.3398C257.281 54.614 258.14 56.5966 258.14 59.2873C258.14 62.5474 256.892 64.9916 254.396 66.62C251.898 68.2483 248.135 69.0625 243.107 69.0625ZM243.37 42.9788C244.681 42.9788 245.603 42.6164 246.135 41.8916C246.665 41.1668 246.93 39.9372 246.93 38.2029C246.93 36.5018 246.657 35.3053 246.111 34.6136C245.561 33.9252 244.631 33.5809 243.321 33.5809C242.01 33.5809 241.072 33.9351 240.506 34.6434C239.936 35.3516 239.652 36.5382 239.652 38.2029C239.652 39.9736 239.926 41.2131 240.476 41.9214C241.025 42.6263 241.99 42.9788 243.37 42.9788ZM237.16 60.8313C237.16 61.7878 237.636 62.4696 238.589 62.8767C239.546 63.2838 241.123 63.4873 243.321 63.4873C245.657 63.4873 247.375 63.2739 248.474 62.8469C249.569 62.4233 250.117 61.5743 250.117 60.3001C250.117 59.3767 249.799 58.7296 249.164 58.359C248.525 57.9883 247.41 57.8029 245.818 57.8029H242.045C240.804 57.8029 239.617 57.7318 238.485 57.5895C237.601 58.7214 237.16 59.802 237.16 60.8313Z" fill="#16181B"/>
<path d="M261.54 30.1806C264.975 30.0747 267.259 29.4905 268.391 28.4281H270.466V33.6309C272.128 31.8603 273.738 30.5778 275.297 29.7834C276.855 28.9858 278.555 28.587 280.395 28.587C282.805 28.587 284.683 29.383 286.03 30.9749C287.374 32.5702 288.046 34.7844 288.046 37.6175V57.5898H279.124V39.4742C279.124 37.0317 277.973 35.8104 275.669 35.8104C274.818 35.8104 274.031 35.9345 273.306 36.1827C272.581 36.4309 271.634 36.8728 270.466 37.5083V57.5898H261.54V30.1806Z" fill="#16181B"/>
<path d="M318.431 58.3841C316.306 58.3841 314.341 58.1987 312.538 57.8281C310.731 57.4574 308.942 56.8649 307.171 56.0507V48.455C309.117 49.4446 310.914 50.1429 312.562 50.55C314.211 50.9571 315.937 51.1607 317.74 51.1607C322.132 51.1607 324.328 49.8153 324.328 47.1245C324.328 46.3103 324.117 45.6385 323.693 45.1089C323.266 44.576 322.574 44.0614 321.618 43.5649C320.665 43.0685 319.142 42.3966 317.05 41.5493C313.615 40.2023 311.136 38.6616 309.614 36.9273C308.091 35.1898 307.33 32.7985 307.33 29.7536C307.33 26.0368 308.561 23.159 311.023 21.1202C313.483 19.0848 316.961 18.0671 321.459 18.0671C323.197 18.0671 324.924 18.2359 326.642 18.5734C328.36 18.9077 329.89 19.3413 331.234 19.8741V27.4699C329.394 26.6921 327.756 26.1344 326.319 25.7968C324.886 25.4593 323.337 25.2905 321.672 25.2905C318.062 25.2905 316.256 26.477 316.256 28.85C316.256 29.6642 316.494 30.3559 316.971 30.9252C317.451 31.4912 318.212 32.0307 319.255 32.5437C320.301 33.0567 321.974 33.7567 324.274 34.6437C327.64 35.9874 330.049 37.5446 331.502 39.3153C332.952 41.086 333.677 43.4243 333.677 46.3302C333.677 50.2952 332.394 53.2954 329.829 55.3309C327.261 57.3664 323.461 58.3841 318.431 58.3841Z" fill="#16181B"/>
<path d="M340.265 68.3182L346.054 55.3607L335.112 29.277H344.411L350.517 44.682L356.519 29.277H364.542L348.606 68.3182H340.265Z" fill="#16181B"/>
<path d="M376.069 58.4384C372.385 58.4384 369.198 57.8724 366.507 56.7405V50.3114C369.625 51.6221 372.706 52.2774 375.751 52.2774C377.306 52.2774 378.44 52.0821 379.152 51.6916C379.86 51.3044 380.214 50.7202 380.214 49.9391C380.214 49.1613 379.86 48.5689 379.152 48.1618C378.44 47.7547 377.04 47.2847 374.952 46.7519C371.943 46.0105 369.784 44.9299 368.473 43.51C367.162 42.0968 366.507 40.0961 366.507 37.5079C366.507 34.4994 367.506 32.2157 369.506 30.6568C371.508 29.098 374.351 28.3185 378.035 28.3185C380.974 28.3185 383.86 28.7802 386.693 29.7036V36.2866C383.542 35.1547 380.656 34.5887 378.035 34.5887C375.483 34.5887 374.207 35.2788 374.207 36.659C374.207 37.2249 374.402 37.6767 374.793 38.0143C375.183 38.3519 375.706 38.6266 376.362 38.8384C377.017 39.0502 378.301 39.4226 380.214 39.9554C383.011 40.6968 385.046 41.741 386.32 43.088C387.595 44.4351 388.232 46.2935 388.232 48.6632C388.232 51.9564 387.232 54.4088 385.233 56.0207C383.231 57.6325 380.176 58.4384 376.069 58.4384Z" fill="#16181B"/>
<path d="M404.276 58.4386C400.699 58.4386 398.104 57.6774 396.492 56.1549C394.88 54.6325 394.074 52.1883 394.074 48.8223V35.4379H390.41V29.2769H390.996C392.376 29.2769 393.439 29.0105 394.183 28.4776C394.925 27.9481 395.456 27.0992 395.777 25.9308L396.626 22.8478H403V29.2769H409.693V35.4379H403V47.9734C403 49.3899 403.265 50.3729 403.795 50.9223C404.328 51.4717 405.266 51.7464 406.61 51.7464C407.212 51.7464 407.735 51.7017 408.178 51.6124C408.622 51.5263 409.322 51.341 410.278 51.0564V57.4308C408.508 58.1027 406.507 58.4386 404.276 58.4386Z" fill="#16181B"/>
<path d="M427.914 58.4384C422.674 58.4384 418.824 57.2436 416.361 54.854C413.899 52.4644 412.667 48.7377 412.667 43.6739V43.4604C412.667 38.6084 413.907 34.8717 416.386 32.2505C418.865 29.6292 422.353 28.3185 426.851 28.3185C431.101 28.3185 434.306 29.5497 436.467 32.0122C438.629 34.4746 439.709 38.0954 439.709 42.8746V45.3717H421.911C422.017 47.0729 422.282 48.3736 422.706 49.2739C423.133 50.1774 423.833 50.8162 424.806 51.1902C425.779 51.5609 427.151 51.7462 428.921 51.7462C430.444 51.7462 431.852 51.6138 433.146 51.349C434.44 51.0809 436.095 50.5928 438.111 49.8845V56.4724C436.307 57.1476 434.599 57.6441 432.987 57.9618C431.376 58.2795 429.684 58.4384 427.914 58.4384ZM421.911 40.4866H430.838C430.695 38.2526 430.323 36.6854 429.721 35.7852C429.118 34.8817 428.109 34.4299 426.692 34.4299C425.1 34.4299 423.95 34.8899 423.242 35.81C422.534 36.7301 422.09 38.289 421.911 40.4866Z" fill="#16181B"/>
<path d="M444.008 30.1806C447.443 30.0747 449.729 29.4905 450.864 28.4281H452.934V33.5267C454.387 31.8619 455.857 30.6224 457.343 29.8083C458.829 28.9941 460.422 28.587 462.124 28.587C463.788 28.587 465.126 28.9858 466.135 29.7834C467.144 30.5778 467.985 31.8785 468.657 33.6856C470.428 31.9513 472.119 30.6671 473.731 29.8331C475.343 29.0023 476.981 28.587 478.646 28.587C481.015 28.587 482.856 29.3747 484.166 30.9501C485.477 32.5255 486.132 34.748 486.132 37.6175V57.5898H477.26V39.3153C477.26 36.9787 476.306 35.8104 474.396 35.8104C473.545 35.8104 472.756 35.9262 472.028 36.1579C471.303 36.3863 470.462 36.7834 469.506 37.3494V57.5898H460.634V39.4246C460.634 38.1834 460.396 37.2716 459.919 36.6891C459.439 36.1033 458.721 35.8104 457.765 35.8104C456.951 35.8104 456.189 35.9163 455.481 36.1281C454.773 36.3399 453.924 36.7305 452.934 37.2997V57.5898H444.008V30.1806Z" fill="#16181B"/>
</g>
</g>
</svg>
